<svg xmlns="http://www.w3.org/2000/svg" width="17" height="16" fill="none"><g clip-path="url(#a)"><path fill="#40BB15" d="M16.333 13.833H2v-13a.167.167 0 0 0-.167-.166H.667A.167.167 0 0 0 .5.833v14.333c0 .092.075.167.167.167h15.666a.167.167 0 0 0 .167-.167V14a.167.167 0 0 0-.167-.167ZM3.5 12.5h11.167a.167.167 0 0 0 .166-.167V3.25a.167.167 0 0 0-.285-.119l-4.381 4.381L7.554 4.93a.167.167 0 0 0-.235 0L3.38 8.879a.164.164 0 0 0-.048.117v3.337c0 .092.075.167.167.167Z"/></g><defs><clipPath id="a"><path fill="#fff" d="M.5.667h16v14.667H.5z"/></clipPath></defs></svg>