<svg xmlns="http://www.w3.org/2000/svg" width="23" height="23" fill="none"><path fill="#F3CD03" d="m6.5 13.137-1.367 5.918a.916.916 0 0 0 1.402.97l4.995-3.33 4.994 3.33a.918.918 0 0 0 1.392-1.014l-1.678-5.87 4.16-3.745a.917.917 0 0 0-.54-1.596l-5.23-.416-2.263-5.01a.916.916 0 0 0-1.67 0L8.43 7.385l-5.229.415a.917.917 0 0 0-.568 1.571L6.5 13.137ZM9.117 9.17a.915.915 0 0 0 .763-.537l1.65-3.652 1.65 3.652a.915.915 0 0 0 .763.537l3.643.29-3 2.7a.92.92 0 0 0-.269.933l1.15 4.023-3.427-2.285a.913.913 0 0 0-1.017 0l-3.581 2.387.963-4.17a.917.917 0 0 0-.253-.862L5.365 9.468l3.752-.299Z"/></svg>